<?xml version="1.0" encoding="UTF-8"?>
<svg version="1.1" xmlns="http://www.w3.org/2000/svg" width="248" height="36">
<path d="M0 0 C81.84 0 163.68 0 248 0 C248 11.88 248 23.76 248 36 C166.16 36 84.32 36 0 36 C0 24.12 0 12.24 0 0 Z " fill="#F7F7F9" transform="translate(0,0)"/>
<path d="M0 0 C2.64 0 5.28 0 8 0 C9.17154293 2.28929053 10.33738074 4.58118362 11.5 6.875 C11.83386719 7.52597656 12.16773438 8.17695313 12.51171875 8.84765625 C15 13.7734375 15 13.7734375 15 16 C15.66 16 16.32 16 17 16 C17.061875 15.21625 17.12375 14.4325 17.1875 13.625 C18.3032335 8.64711207 20.60306227 4.47546306 23 0 C24.98 0 26.96 0 29 0 C31.64 4.95 34.28 9.9 37 15 C39.31 10.05 41.62 5.1 44 0 C46.64 0 49.28 0 52 0 C51.60167969 0.85722656 51.20335937 1.71445313 50.79296875 2.59765625 C47.44049342 9.79385765 47.44049342 9.79385765 44.25 17.0625 C43.2500945 19.41227793 42.14203917 21.71592165 41 24 C38.03 24 35.06 24 32 24 C31.16209211 22.21046815 30.32980604 20.41830305 29.5 18.625 C29.0359375 17.62726562 28.571875 16.62953125 28.09375 15.6015625 C27 13 27 13 27 11 C24.20836288 13.40768703 23.10282443 15.76146616 21.8125 19.1875 C21.46832031 20.08855469 21.12414062 20.98960938 20.76953125 21.91796875 C20.38861328 22.94857422 20.38861328 22.94857422 20 24 C18.56416999 24.10836453 17.1259798 24.18576167 15.6875 24.25 C14.88699219 24.29640625 14.08648437 24.3428125 13.26171875 24.390625 C11 24 11 24 9.328125 22.28125 C7.98516939 19.97452625 6.990519 17.75127008 6.0625 15.25 C4.77788685 11.89711008 3.3976113 8.69042754 1.75 5.5 C0 2 0 2 0 0 Z " fill="#273289" transform="translate(5,6)"/>
<path d="M0 0 C1.72476563 0.00773438 1.72476563 0.00773438 3.484375 0.015625 C5.28648438 0.0465625 5.28648438 0.0465625 7.125 0.078125 C8.92710938 0.08585938 8.92710938 0.08585938 10.765625 0.09375 C19.66121832 0.17353111 19.66121832 0.17353111 23.125 1.328125 C23.125 2.978125 23.125 4.628125 23.125 6.328125 C15.205 5.998125 7.285 5.668125 -0.875 5.328125 C-0.875 6.648125 -0.875 7.968125 -0.875 9.328125 C0.10339844 9.30492187 1.08179687 9.28171875 2.08984375 9.2578125 C9.37312251 9.15755104 16.09578927 9.18362003 23.125 11.328125 C25.125 13.328125 25.125 13.328125 25.5 16.703125 C25.125 20.328125 25.125 20.328125 23.53613281 22.53027344 C20.2799582 24.95822704 18.20514362 24.78711049 14.171875 24.71875 C13.51165344 24.71309021 12.85143188 24.70743042 12.17120361 24.70159912 C10.07171737 24.6792873 7.9739663 24.62910814 5.875 24.578125 C4.4479414 24.55805294 3.02085592 24.53980339 1.59375 24.5234375 C-1.89639293 24.47944193 -5.38552699 24.41045376 -8.875 24.328125 C-8.875 22.348125 -8.875 20.368125 -8.875 18.328125 C-0.625 18.328125 7.625 18.328125 16.125 18.328125 C16.125 17.668125 16.125 17.008125 16.125 16.328125 C15.24763184 16.298396 15.24763184 16.298396 14.35253906 16.26806641 C11.69291975 16.17259019 9.03406162 16.06300358 6.375 15.953125 C5.45460938 15.9221875 4.53421875 15.89125 3.5859375 15.859375 C2.25175781 15.80136719 2.25175781 15.80136719 0.890625 15.7421875 C0.07368164 15.7107666 -0.74326172 15.6793457 -1.58496094 15.64697266 C-4.08101917 15.29944046 -5.74120725 14.65716968 -7.875 13.328125 C-9.43274936 10.21262628 -9.43980622 6.7236862 -8.875 3.328125 C-6.37839161 -0.14144191 -4.10843918 -0.03641343 0 0 Z " fill="#29348A" transform="translate(104.875,5.671875)"/>
<path d="M0 0 C9.9 0 19.8 0 30 0 C30 1.98 30 3.96 30 6 C22.74 6 15.48 6 8 6 C8 6.99 8 7.98 8 9 C12.29 9 16.58 9 21 9 C21 10.98 21 12.96 21 15 C16.71 15 12.42 15 8 15 C8 16.32 8 17.64 8 19 C15.26 19 22.52 19 30 19 C30 20.65 30 22.3 30 24 C20.1 24 10.2 24 0 24 C0 16.08 0 8.16 0 0 Z " fill="#2A358A" transform="translate(61,6)"/>
<path d="M0 0 C9.57 0 19.14 0 29 0 C29 1.98 29 3.96 29 6 C22.07 6 15.14 6 8 6 C8 6.99 8 7.98 8 9 C12.29 9 16.58 9 21 9 C21 10.98 21 12.96 21 15 C16.38 15 11.76 15 7 15 C7 16.32 7 17.64 7 19 C14.26 19 21.52 19 29 19 C29 20.65 29 22.3 29 24 C19.43 24 9.86 24 0 24 C0 16.08 0 8.16 0 0 Z " fill="#263089" transform="translate(175,6)"/>
<path d="M0 0 C1.084021 0.00523682 2.16804199 0.01047363 3.28491211 0.01586914 C5.03964844 0.02070312 5.03964844 0.02070312 6.82983398 0.02563477 C8.0615332 0.03401367 9.29323242 0.04239258 10.56225586 0.05102539 C12.41560547 0.05779297 12.41560547 0.05779297 14.30639648 0.06469727 C17.37089703 0.07652931 20.43530307 0.09301366 23.49975586 0.11352539 C23.49975586 1.76352539 23.49975586 3.41352539 23.49975586 5.11352539 C22.91484375 5.13858154 22.32993164 5.1636377 21.72729492 5.18945312 C19.06791115 5.30575501 16.40885183 5.42832606 13.74975586 5.55102539 C12.36916992 5.61 12.36916992 5.61 10.96069336 5.67016602 C9.62651367 5.73300781 9.62651367 5.73300781 8.26538086 5.79711914 C7.4484375 5.83377686 6.63149414 5.87043457 5.78979492 5.90820312 C3.18707975 6.08195072 3.18707975 6.08195072 -0.50024414 7.11352539 C-0.50024414 10.41352539 -0.50024414 13.71352539 -0.50024414 17.11352539 C1.96096427 18.3441296 3.75752452 18.31929769 6.50756836 18.42993164 C7.49370117 18.47182617 8.47983398 18.5137207 9.49584961 18.55688477 C10.52838867 18.59620117 11.56092773 18.63551758 12.62475586 18.67602539 C14.18516602 18.74080078 14.18516602 18.74080078 15.77709961 18.80688477 C18.35118114 18.91315419 20.92536094 19.01519122 23.49975586 19.11352539 C23.99475586 21.58852539 23.99475586 21.58852539 24.49975586 24.11352539 C20.10414547 24.22982321 15.70893157 24.30081173 11.31225586 24.36352539 C10.06637695 24.39704102 8.82049805 24.43055664 7.53686523 24.46508789 C5.73378906 24.48442383 5.73378906 24.48442383 3.89428711 24.50415039 C2.23683472 24.53557129 2.23683472 24.53557129 0.54589844 24.56762695 C-3.21382916 24.00714821 -4.83590716 22.77816312 -7.50024414 20.11352539 C-9.04047769 15.49282473 -9.15557044 10.93334461 -8.50024414 6.11352539 C-6.06274414 2.98852539 -6.06274414 2.98852539 -3.50024414 1.11352539 C-2.50024414 0.11352539 -2.50024414 0.11352539 0 0 Z " fill="#192286" transform="translate(216.500244140625,5.886474609375)"/>
<path d="M0 0 C11.55 0 23.1 0 35 0 C35 1.98 35 3.96 35 6 C30.38 6 25.76 6 21 6 C21 11.94 21 17.88 21 24 C18.36 24 15.72 24 13 24 C13 18.06 13 12.12 13 6 C8.71 6 4.42 6 0 6 C0 4.02 0 2.04 0 0 Z " fill="#273289" transform="translate(134,6)"/>
<path d="M0 0 C9.9 0 19.8 0 30 0 C30 0.33 30 0.66 30 1 C20.76 1 11.52 1 2 1 C2 7.93 2 14.86 2 22 C3.98 21.67 5.96 21.34 8 21 C8 20.67 8 20.34 8 20 C15.26 20 22.52 20 30 20 C30 21.32 30 22.64 30 24 C20.1 24 10.2 24 0 24 C0 16.08 0 8.16 0 0 Z " fill="#1E2A87" transform="translate(61,6)"/>
<path d="M0 0 C1.72476563 0.00773438 1.72476563 0.00773438 3.484375 0.015625 C5.28648438 0.0465625 5.28648438 0.0465625 7.125 0.078125 C8.92710938 0.08585938 8.92710938 0.08585938 10.765625 0.09375 C19.66121832 0.17353111 19.66121832 0.17353111 23.125 1.328125 C23.125 2.978125 23.125 4.628125 23.125 6.328125 C15.205 5.998125 7.285 5.668125 -0.875 5.328125 C-0.875 4.998125 -0.875 4.668125 -0.875 4.328125 C4.57 3.833125 4.57 3.833125 10.125 3.328125 C8.02111431 3.27410226 5.91683286 3.23532244 3.8125 3.203125 C2.64074219 3.17992187 1.46898438 3.15671875 0.26171875 3.1328125 C-3.03893661 3.07491882 -3.03893661 3.07491882 -5.875 5.328125 C-6.15556176 8.13374262 -6.14210868 9.79390763 -4.875 12.328125 C-5.865 12.658125 -6.855 12.988125 -7.875 13.328125 C-9.43274936 10.21262628 -9.43980622 6.7236862 -8.875 3.328125 C-6.37839161 -0.14144191 -4.10843918 -0.03641343 0 0 Z " fill="#232987" transform="translate(104.875,5.671875)"/>
<path d="M0 0 C1.5631897 0.07069702 1.5631897 0.07069702 3.15795898 0.14282227 C4.28266602 0.19116211 5.40737305 0.23950195 6.56616211 0.28930664 C8.34216797 0.37341797 8.34216797 0.37341797 10.15405273 0.45922852 C11.34192383 0.51143555 12.52979492 0.56364258 13.75366211 0.61743164 C16.69986339 0.74758511 19.64576549 0.88256492 22.59155273 1.02172852 C22.59155273 2.01172852 22.59155273 3.00172852 22.59155273 4.02172852 C15.00155273 4.35172852 7.41155273 4.68172852 -0.40844727 5.02172852 C-0.07844727 4.36172852 0.25155273 3.70172852 0.59155273 3.02172852 C-0.72844727 2.36172852 -2.04844727 1.70172852 -3.40844727 1.02172852 C-2.40844727 0.02172852 -2.40844727 0.02172852 0 0 Z " fill="#313C8B" transform="translate(216.408447265625,5.978271484375)"/>
<path d="M0 0 C0.9796875 0.00322266 1.959375 0.00644531 2.96875 0.00976562 C3.98453125 0.01814453 5.0003125 0.02652344 6.046875 0.03515625 C7.59375 0.04192383 7.59375 0.04192383 9.171875 0.04882812 C11.71360073 0.06059537 14.25520819 0.07703614 16.796875 0.09765625 C16.796875 1.08765625 16.796875 2.07765625 16.796875 3.09765625 C4.421875 3.59265625 4.421875 3.59265625 -8.203125 4.09765625 C-8.533125 3.10765625 -8.863125 2.11765625 -9.203125 1.09765625 C-6.06462436 0.17211882 -3.26631722 -0.01899022 0 0 Z " fill="#333E8B" transform="translate(222.203125,25.90234375)"/>
<path d="M0 0 C5.625 -0.25 5.625 -0.25 9 2 C9 2.66 9 3.32 9 4 C14.94 4 20.88 4 27 4 C27 4.33 27 4.66 27 5 C13.635 5.495 13.635 5.495 0 6 C0 4.02 0 2.04 0 0 Z " fill="#3A448F" transform="translate(96,24)"/>
<path d="M0 0 C1.65 0 3.3 0 5 0 C5 1.65 5 3.3 5 5 C-2.92 4.67 -10.84 4.34 -19 4 C-19 3.67 -19 3.34 -19 3 C-12.73 2.67 -6.46 2.34 0 2 C0 1.34 0 0.68 0 0 Z " fill="#151D85" transform="translate(123,7)"/>
<path d="M0 0 C0.99 0 1.98 0 3 0 C3.36923077 6.52307692 3.36923077 6.52307692 1.5 8.9375 C1.005 9.288125 0.51 9.63875 0 10 C-0.99 9.34 -1.98 8.68 -3 8 C-2.01 8 -1.02 8 0 8 C0 5.36 0 2.72 0 0 Z " fill="#3B4192" transform="translate(127,19)"/>
<path d="M0 0 C5.94 0.33 11.88 0.66 18 1 C18 1.33 18 1.66 18 2 C11.565 2.495 11.565 2.495 5 3 C5 2.34 5 1.68 5 1 C3.35 1 1.7 1 0 1 C0 0.67 0 0.34 0 0 Z " fill="#0D1783" transform="translate(100,25)"/>
<path d="M0 0 C0.33 0.66 0.66 1.32 1 2 C2.32 1.67 3.64 1.34 5 1 C4.67 2.65 4.34 4.3 4 6 C3.01 6 2.02 6 1 6 C0.34 5.01 -0.32 4.02 -1 3 C-0.67 2.01 -0.34 1.02 0 0 Z " fill="#353F8D" transform="translate(23,16)"/>
<path d="M0 0 C3 1 3 1 5 3 C1.0186217 4.3271261 -2.85045227 4.06915913 -7 4 C-7 3.67 -7 3.34 -7 3 C-5.02 3 -3.04 3 -1 3 C-0.67 2.01 -0.34 1.02 0 0 Z " fill="#38428D" transform="translate(122,6)"/>
<path d="M0 0 C-1.75 1.5625 -1.75 1.5625 -4 3 C-6.1875 2.8125 -6.1875 2.8125 -8 2 C-8.33 1.34 -8.66 0.68 -9 0 C-5.67465243 -1.10844919 -3.37817425 -0.84454356 0 0 Z " fill="#38448F" transform="translate(222,27)"/>
<path d="M0 0 C2.97 0.495 2.97 0.495 6 1 C6 1.99 6 2.98 6 4 C4.35 4 2.7 4 1 4 C0.67 2.68 0.34 1.36 0 0 Z " fill="#B4B7D0" transform="translate(242,5)"/>
</svg>
